<?xml version="1.0" encoding="UTF-8"?>
<svg width="1530px" height="1059px" viewBox="0 0 1530 1059" version="1.1" xmlns="http://www.w3.org/2000/svg" xmlns:xlink="http://www.w3.org/1999/xlink">
    <!-- Generator: Sketch 51.3 (57544) - http://www.bohemiancoding.com/sketch -->
    <title>Artboard</title>
    <desc>Created with Sketch.</desc>
    <defs>
        <linearGradient x1="87.480937%" y1="67.2290699%" x2="16.5474044%" y2="67.2290699%" id="linearGradient-1">
            <stop stop-color="#0BA5C7" offset="0%"></stop>
            <stop stop-color="#694FD4" offset="39.9227782%"></stop>
            <stop stop-color="#C44B96" offset="100%"></stop>
        </linearGradient>
    </defs>
    <g id="Artboard" stroke="none" stroke-width="1" fill="none" fill-rule="evenodd">
        <rect id="Rectangle" fill="url(#linearGradient-1)" x="262" y="73" width="1007" height="938"></rect>
        <path d="M927.865903,597.588275 L957.057353,547.027202 L859.557353,378.152248 L684.865423,378.152248 L830.72599,125.514335 C831.643232,125.623122 832.576671,125.679079 833.52318,125.679079 C846.501872,125.679079 857.02318,115.157771 857.02318,102.179079 C857.02318,89.2003874 846.501872,78.679079 833.52318,78.679079 C820.544488,78.679079 810.02318,89.2003874 810.02318,102.179079 C810.02318,107.723638 811.94336,112.819715 815.155004,116.838594 L600.02318,489.457843 L600.227073,489.575561 L567.057353,547.027202 L664.557353,715.902156 L839.187127,715.902156 L698.345604,959.84683 C697.420249,959.736067 696.47837,959.679079 695.52318,959.679079 C682.544488,959.679079 672.02318,970.200387 672.02318,983.179079 C672.02318,996.157771 682.544488,1006.67908 695.52318,1006.67908 C708.501872,1006.67908 719.02318,996.157771 719.02318,983.179079 C719.02318,977.643532 717.109237,972.55501 713.907007,968.53917 L928.02318,597.679079 L927.865903,597.588275 Z M61,-20 L1469,-20 L1469,1107 L61,1107 L61,-20 Z M394.591447,438.131579 L358.370395,438.131579 L358.370395,590.684211 C358.370395,604.607087 360.953702,616.843807 366.120395,627.394737 C371.287087,637.945667 378.030879,646.783298 386.351974,653.907895 C394.673068,661.032492 404.02736,666.416648 414.415132,670.060526 C424.802903,673.704404 435.163326,675.526316 445.496711,675.526316 C452.675694,675.526316 459.908955,674.710534 467.196711,673.078947 C474.484466,671.44736 481.500186,669.027209 488.244079,665.818421 C494.987972,662.609633 501.269488,658.612305 507.088816,653.826316 C512.908143,649.040327 517.965987,643.520207 522.2625,637.265789 C526.559013,631.011372 529.958102,624.050038 532.459868,616.381579 C534.961635,608.71312 536.2125,600.364957 536.2125,591.336842 L536.2125,438.131579 L499.828289,438.131579 L499.828289,592.805263 C499.828289,601.724606 498.22392,609.528914 495.015132,616.218421 C491.806344,622.907928 487.591473,628.509627 482.370395,633.023684 C477.149316,637.537742 471.275691,640.936831 464.749342,643.221053 C458.222994,645.505275 451.696743,646.647368 445.170395,646.647368 C439.079136,646.647368 433.015162,645.396504 426.978289,642.894737 C420.941417,640.39297 415.530068,636.803532 410.744079,632.126316 C405.95809,627.449099 402.069533,621.73863 399.078289,614.994737 C396.087046,608.250843 394.591447,600.636885 394.591447,592.152632 L394.591447,438.131579 Z M1007.66053,591.5 L970.623684,591.5 C970.841229,600.093025 972.173672,608.142068 974.621053,615.647368 C977.068433,623.152669 980.358751,630.032425 984.492105,636.286842 C988.625459,642.541259 993.520147,648.088572 999.176316,652.928947 C1004.83248,657.769322 1010.95084,661.875422 1017.53158,665.247368 C1024.11231,668.619315 1031.04645,671.17543 1038.33421,672.915789 C1045.62197,674.656149 1053.01838,675.526316 1060.52368,675.526316 C1073.03252,675.526316 1084.58942,674.030717 1095.19474,671.039474 C1105.80005,668.048231 1114.9368,663.615819 1122.60526,657.742105 C1130.27372,651.868392 1136.25612,644.553553 1140.55263,635.797368 C1144.84914,627.041184 1146.99737,616.898303 1146.99737,605.368421 C1146.99737,595.687671 1145.09388,587.393894 1141.28684,580.486842 C1137.47981,573.57979 1132.44915,567.624586 1126.19474,562.621053 C1119.94032,557.617519 1112.81583,553.321071 1104.82105,549.731579 C1096.82628,546.142087 1088.66846,542.878962 1080.34737,539.942105 C1072.02627,537.005248 1063.86846,534.150014 1055.87368,531.376316 C1047.87891,528.602618 1040.75442,525.475456 1034.5,521.994737 C1028.24558,518.514018 1023.21493,514.462304 1019.40789,509.839474 C1015.60086,505.216644 1013.69737,499.587752 1013.69737,492.952632 C1013.69737,487.078918 1014.97543,482.075459 1017.53158,477.942105 C1020.08773,473.808751 1023.43244,470.491241 1027.56579,467.989474 C1031.69914,465.487707 1036.40348,463.665795 1041.67895,462.523684 C1046.95441,461.381573 1052.31138,460.810526 1057.75,460.810526 C1063.73249,460.810526 1069.38857,461.789464 1074.71842,463.747368 C1080.04827,465.705273 1084.7798,468.5877 1088.91316,472.394737 C1093.04651,476.201773 1096.4456,480.933305 1099.11053,486.589474 C1101.77545,492.245642 1103.37982,498.826278 1103.92368,506.331579 L1140.96053,506.331579 C1140.52544,500.892955 1139.65527,495.291257 1138.35,489.526316 C1137.04473,483.761375 1135.03247,478.132484 1132.31316,472.639474 C1129.59385,467.146464 1126.14037,461.925463 1121.95263,456.976316 C1117.76489,452.027168 1112.65266,447.73072 1106.61579,444.086842 C1100.57892,440.442964 1093.53601,437.533344 1085.48684,435.357895 C1077.43768,433.182445 1068.19216,432.094737 1057.75,432.094737 C1045.8938,432.094737 1035.04391,433.42718 1025.2,436.092105 C1015.35609,438.757031 1006.87197,442.645588 999.747368,447.757895 C992.622771,452.870201 987.102651,459.206103 983.186842,466.765789 C979.271033,474.325476 977.313158,483.054336 977.313158,492.952632 C977.313158,502.959699 979.216648,511.552596 983.023684,518.731579 C986.830721,525.910562 991.861372,532.083308 998.115789,537.25 C1004.37021,542.416692 1011.4947,546.821912 1019.48947,550.465789 C1027.48425,554.109667 1035.66926,557.427178 1044.04474,560.418421 C1052.42022,563.409664 1060.60522,566.264899 1068.6,568.984211 C1076.59478,571.703522 1083.71927,574.721913 1089.97368,578.039474 C1096.2281,581.357034 1101.25875,585.164014 1105.06579,589.460526 C1108.87283,593.757039 1110.77632,599.005232 1110.77632,605.205263 C1110.77632,612.710564 1109.38949,619.073658 1106.61579,624.294737 C1103.84209,629.515816 1100.14388,633.757878 1095.52105,637.021053 C1090.89822,640.284227 1085.56845,642.649993 1079.53158,644.118421 C1073.49471,645.586849 1067.15881,646.321053 1060.52368,646.321053 C1053.01838,646.321053 1046.16582,644.961417 1039.96579,642.242105 C1033.76576,639.522793 1028.35441,635.715814 1023.73158,630.821053 C1019.10875,625.926291 1015.41054,620.134244 1012.63684,613.444737 C1009.86314,606.75523 1008.20439,599.440391 1007.66053,591.5 Z" id="Combined-Shape" fill="#FFFFFF"></path>
        <path d="M759.402054,423.918374 L784.703559,423.918374 L784.703559,646.332651 L901.637825,444.276936 L924.137066,452.656485 L798.91306,670.27188 L770.84938,670.27188 L745.296441,670.27188 L745.296441,561 L693.407118,561 L697.791401,552.836749 L745.296441,552.836749 L745.296441,448.292822 L626.932784,652.824784 L604.407118,644.491003 L731.292747,423.997594 L759.449291,423.836749 L759.402054,423.918374 Z" id="Combined-Shape" fill="#FFFFFF"></path>
    </g>
</svg>